<svg width="15" height="15" viewBox="0 0 15 15" fill="none" xmlns="http://www.w3.org/2000/svg">
<path id="Vector" d="M15 7.5C15 8.98336 14.5601 10.4334 13.736 11.6668C12.9119 12.9001 11.7406 13.8614 10.3701 14.4291C8.99968 14.9967 7.49168 15.1453 6.03683 14.8559C4.58197 14.5665 3.24559 13.8522 2.1967 12.8033C1.1478 11.7544 0.433503 10.418 0.144114 8.96317C-0.145275 7.50832 0.00324978 6.00032 0.570907 4.62987C1.13856 3.25943 2.09985 2.08809 3.33322 1.26398C4.56659 0.43987 6.01664 7.90675e-07 7.5 7.90675e-07C8.48504 -0.000451602 9.46052 0.193231 10.3707 0.569981C11.2808 0.94673 12.1078 1.49916 12.8043 2.19569C13.5008 2.89222 14.0533 3.71919 14.43 4.62934C14.8068 5.53948 15.0005 6.51496 15 7.5Z" fill="white"/>
</svg>
